<svg width="60" height="71" viewBox="0 0 60 71" fill="none" xmlns="http://www.w3.org/2000/svg">
<path d="M0.40625 34.375C0.40625 30.3125 0.927083 26.1771 1.96875 21.9688C3.01042 17.7604 4.59375 13.75 6.71875 9.9375C8.84375 6.125 11.4792 2.84375 14.625 0.09375C15.2708 0.302083 16.1667 0.8125 17.3125 1.625C18.4792 2.4375 19.5417 3.33333 20.5 4.3125C21.4792 5.29167 22.0729 6.14583 22.2812 6.875C18.7396 10.7083 16.0417 15.0729 14.1875 19.9688C12.3333 24.8438 11.4062 30 11.4062 35.4375C11.4062 40.7292 12.1771 45.8542 13.7188 50.8125C15.2812 55.75 17.6458 60.3125 20.8125 64.5C20.7292 65.0833 20.375 65.8125 19.75 66.6875C19.1458 67.5833 18.4583 68.3646 17.6875 69.0312C16.9167 69.6979 16.2604 70.0312 15.7188 70.0312C12.5521 67.5104 9.8125 64.2708 7.5 60.3125C5.1875 56.3542 3.42708 52.1146 2.21875 47.5938C1.01042 43.0521 0.40625 38.6458 0.40625 34.375ZM44.25 70.0312C43.7083 70.0312 43.0521 69.6979 42.2812 69.0312C41.5104 68.3646 40.8125 67.5833 40.1875 66.6875C39.5833 65.8125 39.2396 65.0833 39.1562 64.5C42.3229 60.3125 44.6771 55.75 46.2188 50.8125C47.7812 45.8542 48.5625 40.7292 48.5625 35.4375C48.5625 30 47.6354 24.8438 45.7812 19.9688C43.9271 15.0729 41.2292 10.7083 37.6875 6.875C37.8958 6.14583 38.4792 5.29167 39.4375 4.3125C40.4167 3.33333 41.4792 2.4375 42.625 1.625C43.7917 0.8125 44.6979 0.302083 45.3438 0.09375C48.4896 2.84375 51.125 6.125 53.25 9.9375C55.375 13.75 56.9583 17.7604 58 21.9688C59.0417 26.1771 59.5625 30.3125 59.5625 34.375C59.5625 38.6458 58.9583 43.0521 57.75 47.5938C56.5417 52.1146 54.7812 56.3542 52.4688 60.3125C50.1562 64.2708 47.4167 67.5104 44.25 70.0312Z" fill="url(#paint0_linear_208_4)"/>
<defs>
<linearGradient id="paint0_linear_208_4" x1="74" y1="-25" x2="-27.5" y2="85" gradientUnits="userSpaceOnUse">
<stop stop-color="#7D1ACB"/>
<stop offset="1" stop-color="#3A84DB"/>
</linearGradient>
</defs>
</svg>
