<svg xmlns="http://www.w3.org/2000/svg" xmlns:xlink="http://www.w3.org/1999/xlink" width="1200" zoomAndPan="magnify" viewBox="0 0 900 299.999988" height="400" preserveAspectRatio="xMidYMid meet" version="1.0"><defs><g/></defs><g fill="#a78bfa" fill-opacity="1"><g transform="translate(10.802741, 184.038134)"><g><path d="M 32.140625 1.03125 C 28.117188 1.03125 24.566406 0.210938 21.484375 -1.421875 C 18.410156 -3.054688 16.054688 -5.316406 14.421875 -8.203125 C 12.785156 -11.085938 11.96875 -14.359375 11.96875 -18.015625 C 11.96875 -21.660156 12.785156 -24.925781 14.421875 -27.8125 C 16.054688 -30.695312 18.410156 -32.972656 21.484375 -34.640625 C 24.566406 -36.316406 28.117188 -37.15625 32.140625 -37.15625 C 36.242188 -37.15625 39.832031 -36.335938 42.90625 -34.703125 C 45.988281 -33.066406 48.347656 -30.804688 49.984375 -27.921875 C 51.617188 -25.035156 52.4375 -21.769531 52.4375 -18.125 C 52.4375 -12.570312 50.59375 -7.988281 46.90625 -4.375 C 43.21875 -0.769531 38.296875 1.03125 32.140625 1.03125 Z M 32.140625 1.03125 "/></g></g></g><g fill="#0affa7" fill-opacity="1"><g transform="translate(66.505709, 203.205134)"><g><path d="M 33.84375 -2.3125 L 1.34375 0 L 51.703125 -132.40625 L 84.3125 -134.734375 Z M 33.84375 -2.3125 "/></g></g></g><g fill="#ffffff" fill-opacity="1"><g transform="translate(144.160333, 181.635882)"><g><path d="M 22.875 1.046875 C 17.914062 1.046875 14.128906 -0.289062 11.515625 -2.96875 C 8.898438 -5.644531 7.59375 -9.71875 7.59375 -15.1875 L 7.59375 -77.203125 L 21.421875 -77.203125 L 21.421875 -15.734375 C 21.421875 -12.367188 22.816406 -10.6875 25.609375 -10.6875 C 26.410156 -10.6875 27.257812 -10.816406 28.15625 -11.078125 L 28.859375 -10.890625 L 30.109375 -0.25 C 29.347656 0.144531 28.332031 0.457031 27.0625 0.6875 C 25.800781 0.925781 24.40625 1.046875 22.875 1.046875 Z M 22.875 1.046875 "/></g></g></g><g fill="#ffffff" fill-opacity="1"><g transform="translate(175.817506, 181.635882)"><g><path d="M 54.421875 -24.421875 L 19.03125 -24.421875 C 19.425781 -19.628906 20.785156 -16.140625 23.109375 -13.953125 C 25.441406 -11.773438 28.625 -10.6875 32.65625 -10.6875 C 35.820312 -10.6875 38.382812 -11.273438 40.34375 -12.453125 C 42.3125 -13.640625 43.894531 -15.429688 45.09375 -17.828125 L 46.140625 -17.828125 L 55.328125 -11.9375 C 53.523438 -8.070312 50.8125 -4.941406 47.1875 -2.546875 C 43.5625 -0.148438 38.71875 1.046875 32.65625 1.046875 C 26.96875 1.046875 22.050781 -0.03125 17.90625 -2.1875 C 13.757812 -4.351562 10.5625 -7.578125 8.3125 -11.859375 C 6.0625 -16.140625 4.9375 -21.359375 4.9375 -27.515625 C 4.9375 -33.773438 6.117188 -39.050781 8.484375 -43.34375 C 10.847656 -47.632812 14.046875 -50.835938 18.078125 -52.953125 C 22.109375 -55.066406 26.632812 -56.125 31.65625 -56.125 C 39.445312 -56.125 45.414062 -54.0625 49.5625 -49.9375 C 53.707031 -45.8125 55.78125 -39.753906 55.78125 -31.765625 C 55.78125 -28.859375 55.679688 -26.609375 55.484375 -25.015625 Z M 42.546875 -33.359375 C 42.410156 -37.546875 41.4375 -40.597656 39.625 -42.515625 C 37.8125 -44.429688 35.15625 -45.390625 31.65625 -45.390625 C 24.664062 -45.390625 20.554688 -41.378906 19.328125 -33.359375 Z M 42.546875 -33.359375 "/></g></g></g><g fill="#ffffff" fill-opacity="1"><g transform="translate(235.686512, 181.635882)"><g><path d="M 21.46875 1.046875 C 17.9375 1.046875 14.875 0.398438 12.28125 -0.890625 C 9.6875 -2.191406 7.6875 -4.097656 6.28125 -6.609375 C 4.882812 -9.128906 4.1875 -12.148438 4.1875 -15.671875 C 4.1875 -18.941406 4.882812 -21.679688 6.28125 -23.890625 C 7.6875 -26.109375 9.851562 -27.921875 12.78125 -29.328125 C 15.707031 -30.742188 19.535156 -31.835938 24.265625 -32.609375 C 27.566406 -33.140625 30.070312 -33.71875 31.78125 -34.34375 C 33.5 -34.976562 34.65625 -35.695312 35.25 -36.5 C 35.851562 -37.300781 36.15625 -38.316406 36.15625 -39.546875 C 36.15625 -41.304688 35.535156 -42.648438 34.296875 -43.578125 C 33.066406 -44.515625 31.019531 -44.984375 28.15625 -44.984375 C 25.09375 -44.984375 22.179688 -44.300781 19.421875 -42.9375 C 16.660156 -41.570312 14.265625 -39.773438 12.234375 -37.546875 L 11.234375 -37.546875 L 5.4375 -46.296875 C 8.238281 -49.390625 11.648438 -51.800781 15.671875 -53.53125 C 19.703125 -55.257812 24.097656 -56.125 28.859375 -56.125 C 36.148438 -56.125 41.425781 -54.578125 44.6875 -51.484375 C 47.945312 -48.390625 49.578125 -43.992188 49.578125 -38.296875 L 49.578125 -14.375 C 49.578125 -11.914062 50.660156 -10.6875 52.828125 -10.6875 C 53.660156 -10.6875 54.476562 -10.835938 55.28125 -11.140625 L 55.96875 -10.9375 L 56.96875 -1.296875 C 56.207031 -0.796875 55.144531 -0.382812 53.78125 -0.0625 C 52.414062 0.25 50.914062 0.40625 49.28125 0.40625 C 45.988281 0.40625 43.414062 -0.222656 41.5625 -1.484375 C 39.71875 -2.753906 38.394531 -4.738281 37.59375 -7.4375 L 36.546875 -7.546875 C 33.847656 -1.816406 28.820312 1.046875 21.46875 1.046875 Z M 25.859375 -9.28125 C 29.054688 -9.28125 31.613281 -10.351562 33.53125 -12.5 C 35.445312 -14.65625 36.40625 -17.644531 36.40625 -21.46875 L 36.40625 -27.0625 L 35.453125 -27.265625 C 34.617188 -26.597656 33.523438 -26.039062 32.171875 -25.59375 C 30.828125 -25.144531 28.890625 -24.703125 26.359375 -24.265625 C 23.367188 -23.765625 21.210938 -22.90625 19.890625 -21.6875 C 18.578125 -20.476562 17.921875 -18.757812 17.921875 -16.53125 C 17.921875 -14.164062 18.617188 -12.363281 20.015625 -11.125 C 21.421875 -9.894531 23.367188 -9.28125 25.859375 -9.28125 Z M 25.859375 -9.28125 "/></g></g></g><g fill="#ffffff" fill-opacity="1"><g transform="translate(293.757949, 181.635882)"><g><path d="M 7.9375 0 L 7.9375 -55.078125 L 21.375 -55.078125 L 21.375 -46.890625 L 22.421875 -46.6875 C 23.753906 -49.75 25.5 -51.992188 27.65625 -53.421875 C 29.820312 -54.859375 32.453125 -55.578125 35.546875 -55.578125 C 38.679688 -55.578125 41.0625 -55.046875 42.6875 -53.984375 L 40.34375 -42.046875 L 39.296875 -41.84375 C 38.398438 -42.207031 37.535156 -42.472656 36.703125 -42.640625 C 35.867188 -42.804688 34.851562 -42.890625 33.65625 -42.890625 C 29.789062 -42.890625 26.84375 -41.53125 24.8125 -38.8125 C 22.78125 -36.101562 21.765625 -31.753906 21.765625 -25.765625 L 21.765625 0 Z M 7.9375 0 "/></g></g></g><g fill="#ffffff" fill-opacity="1"><g transform="translate(336.949517, 181.635882)"><g><path d="M 7.9375 0 L 7.9375 -55.078125 L 21.21875 -55.078125 L 21.21875 -46.984375 L 22.265625 -46.734375 C 25.691406 -52.992188 31.253906 -56.125 38.953125 -56.125 C 45.304688 -56.125 49.972656 -54.390625 52.953125 -50.921875 C 55.929688 -47.460938 57.421875 -42.421875 57.421875 -35.796875 L 57.421875 0 L 43.59375 0 L 43.59375 -34.109375 C 43.59375 -37.765625 42.859375 -40.398438 41.390625 -42.015625 C 39.929688 -43.628906 37.585938 -44.4375 34.359375 -44.4375 C 30.390625 -44.4375 27.296875 -43.15625 25.078125 -40.59375 C 22.867188 -38.03125 21.765625 -34.003906 21.765625 -28.515625 L 21.765625 0 Z M 7.9375 0 "/></g></g></g><g fill="#ffffff" fill-opacity="1"><g transform="translate(401.462227, 181.635882)"><g><path d="M 14.828125 -61.671875 C 12.328125 -61.671875 10.296875 -62.425781 8.734375 -63.9375 C 7.171875 -65.457031 6.390625 -67.414062 6.390625 -69.8125 C 6.390625 -72.175781 7.171875 -74.113281 8.734375 -75.625 C 10.296875 -77.132812 12.328125 -77.890625 14.828125 -77.890625 C 16.492188 -77.890625 17.972656 -77.539062 19.265625 -76.84375 C 20.566406 -76.144531 21.578125 -75.1875 22.296875 -73.96875 C 23.015625 -72.757812 23.375 -71.375 23.375 -69.8125 C 23.375 -68.25 23.015625 -66.847656 22.296875 -65.609375 C 21.578125 -64.378906 20.566406 -63.414062 19.265625 -62.71875 C 17.972656 -62.019531 16.492188 -61.671875 14.828125 -61.671875 Z M 7.9375 0 L 7.9375 -55.078125 L 21.765625 -55.078125 L 21.765625 0 Z M 7.9375 0 "/></g></g></g><g fill="#ffffff" fill-opacity="1"><g transform="translate(431.122102, 181.635882)"><g><path d="M 7.9375 0 L 7.9375 -55.078125 L 21.21875 -55.078125 L 21.21875 -46.984375 L 22.265625 -46.734375 C 25.691406 -52.992188 31.253906 -56.125 38.953125 -56.125 C 45.304688 -56.125 49.972656 -54.390625 52.953125 -50.921875 C 55.929688 -47.460938 57.421875 -42.421875 57.421875 -35.796875 L 57.421875 0 L 43.59375 0 L 43.59375 -34.109375 C 43.59375 -37.765625 42.859375 -40.398438 41.390625 -42.015625 C 39.929688 -43.628906 37.585938 -44.4375 34.359375 -44.4375 C 30.390625 -44.4375 27.296875 -43.15625 25.078125 -40.59375 C 22.867188 -38.03125 21.765625 -34.003906 21.765625 -28.515625 L 21.765625 0 Z M 7.9375 0 "/></g></g></g><g fill="#ffffff" fill-opacity="1"><g transform="translate(495.634825, 181.635882)"><g><path d="M 28.5625 23.375 C 19.476562 23.375 12.769531 22.039062 8.4375 19.375 C 4.113281 16.707031 1.953125 12.992188 1.953125 8.234375 C 1.953125 5.335938 2.875 2.96875 4.71875 1.125 C 6.5625 -0.71875 9.21875 -1.957031 12.6875 -2.59375 L 12.6875 -3.640625 C 10.820312 -4.773438 9.476562 -6.03125 8.65625 -7.40625 C 7.84375 -8.789062 7.4375 -10.398438 7.4375 -12.234375 C 7.4375 -16.660156 10.316406 -19.640625 16.078125 -21.171875 L 16.078125 -22.21875 C 13.117188 -23.914062 10.890625 -26.019531 9.390625 -28.53125 C 7.890625 -31.050781 7.140625 -34.09375 7.140625 -37.65625 C 7.140625 -41.3125 7.976562 -44.53125 9.65625 -47.3125 C 11.34375 -50.09375 13.804688 -52.253906 17.046875 -53.796875 C 20.296875 -55.347656 24.1875 -56.125 28.71875 -56.125 C 33.3125 -56.125 36.972656 -55.328125 39.703125 -53.734375 C 41.398438 -56.191406 42.378906 -59.035156 42.640625 -62.265625 L 43.6875 -62.921875 L 53.625 -60.46875 C 53.332031 -57.84375 52.566406 -55.640625 51.328125 -53.859375 C 50.097656 -52.078125 48.1875 -50.484375 45.59375 -49.078125 L 45.59375 -47.984375 C 48.6875 -45.253906 50.234375 -41.441406 50.234375 -36.546875 C 50.234375 -33.148438 49.382812 -30.101562 47.6875 -27.40625 C 45.988281 -24.71875 43.515625 -22.585938 40.265625 -21.015625 C 37.023438 -19.453125 33.175781 -18.671875 28.71875 -18.671875 L 26.609375 -18.71875 C 25.285156 -18.789062 24.351562 -18.828125 23.8125 -18.828125 C 22.550781 -18.828125 21.5625 -18.484375 20.84375 -17.796875 C 20.132812 -17.117188 19.78125 -16.25 19.78125 -15.1875 C 19.78125 -14.019531 20.242188 -13.109375 21.171875 -12.453125 C 22.109375 -11.804688 23.472656 -11.453125 25.265625 -11.390625 L 37.59375 -10.9375 C 49.78125 -10.570312 55.875 -5.328125 55.875 4.796875 C 55.875 8.359375 54.96875 11.523438 53.15625 14.296875 C 51.34375 17.078125 48.40625 19.285156 44.34375 20.921875 C 40.28125 22.554688 35.019531 23.375 28.5625 23.375 Z M 28.71875 -28.359375 C 31.375 -28.359375 33.453125 -29.140625 34.953125 -30.703125 C 36.453125 -32.273438 37.203125 -34.507812 37.203125 -37.40625 C 37.203125 -40.300781 36.453125 -42.519531 34.953125 -44.0625 C 33.453125 -45.613281 31.375 -46.390625 28.71875 -46.390625 C 26.019531 -46.390625 23.9375 -45.613281 22.46875 -44.0625 C 21 -42.519531 20.265625 -40.300781 20.265625 -37.40625 C 20.265625 -34.46875 21 -32.222656 22.46875 -30.671875 C 23.9375 -29.128906 26.019531 -28.359375 28.71875 -28.359375 Z M 28.5625 13.328125 C 33.289062 13.328125 36.726562 12.660156 38.875 11.328125 C 41.019531 10.003906 42.09375 8.273438 42.09375 6.140625 C 42.09375 4.410156 41.539062 3.132812 40.4375 2.3125 C 39.34375 1.5 37.597656 1.0625 35.203125 1 L 24.3125 0.5 C 23.945312 0.5 23.601562 0.484375 23.28125 0.453125 C 22.96875 0.421875 22.664062 0.40625 22.375 0.40625 C 20.039062 0.40625 18.265625 0.898438 17.046875 1.890625 C 15.835938 2.890625 15.234375 4.273438 15.234375 6.046875 C 15.234375 8.367188 16.347656 10.160156 18.578125 11.421875 C 20.804688 12.691406 24.132812 13.328125 28.5625 13.328125 Z M 28.5625 13.328125 "/></g></g></g><g fill="#ffffff" fill-opacity="1"><g transform="translate(552.907331, 181.635882)"><g><path d="M 37.703125 -73 C 42.929688 -73 47.398438 -72.039062 51.109375 -70.125 C 54.816406 -68.21875 57.617188 -65.539062 59.515625 -62.09375 C 61.421875 -58.644531 62.375 -54.640625 62.375 -50.078125 C 62.375 -45.523438 61.421875 -41.53125 59.515625 -38.09375 C 57.617188 -34.664062 54.816406 -31.992188 51.109375 -30.078125 C 47.398438 -28.171875 42.929688 -27.21875 37.703125 -27.21875 L 23.921875 -27.21875 L 23.921875 0 L 9.484375 0 L 9.484375 -73 Z M 35.796875 -38.65625 C 43.828125 -38.65625 47.84375 -42.460938 47.84375 -50.078125 C 47.84375 -57.734375 43.828125 -61.5625 35.796875 -61.5625 L 23.921875 -61.5625 L 23.921875 -38.65625 Z M 35.796875 -38.65625 "/></g></g></g><g fill="#ffffff" fill-opacity="1"><g transform="translate(619.617082, 181.635882)"><g><path d="M 21.46875 1.046875 C 17.9375 1.046875 14.875 0.398438 12.28125 -0.890625 C 9.6875 -2.191406 7.6875 -4.097656 6.28125 -6.609375 C 4.882812 -9.128906 4.1875 -12.148438 4.1875 -15.671875 C 4.1875 -18.941406 4.882812 -21.679688 6.28125 -23.890625 C 7.6875 -26.109375 9.851562 -27.921875 12.78125 -29.328125 C 15.707031 -30.742188 19.535156 -31.835938 24.265625 -32.609375 C 27.566406 -33.140625 30.070312 -33.71875 31.78125 -34.34375 C 33.5 -34.976562 34.65625 -35.695312 35.25 -36.5 C 35.851562 -37.300781 36.15625 -38.316406 36.15625 -39.546875 C 36.15625 -41.304688 35.535156 -42.648438 34.296875 -43.578125 C 33.066406 -44.515625 31.019531 -44.984375 28.15625 -44.984375 C 25.09375 -44.984375 22.179688 -44.300781 19.421875 -42.9375 C 16.660156 -41.570312 14.265625 -39.773438 12.234375 -37.546875 L 11.234375 -37.546875 L 5.4375 -46.296875 C 8.238281 -49.390625 11.648438 -51.800781 15.671875 -53.53125 C 19.703125 -55.257812 24.097656 -56.125 28.859375 -56.125 C 36.148438 -56.125 41.425781 -54.578125 44.6875 -51.484375 C 47.945312 -48.390625 49.578125 -43.992188 49.578125 -38.296875 L 49.578125 -14.375 C 49.578125 -11.914062 50.660156 -10.6875 52.828125 -10.6875 C 53.660156 -10.6875 54.476562 -10.835938 55.28125 -11.140625 L 55.96875 -10.9375 L 56.96875 -1.296875 C 56.207031 -0.796875 55.144531 -0.382812 53.78125 -0.0625 C 52.414062 0.25 50.914062 0.40625 49.28125 0.40625 C 45.988281 0.40625 43.414062 -0.222656 41.5625 -1.484375 C 39.71875 -2.753906 38.394531 -4.738281 37.59375 -7.4375 L 36.546875 -7.546875 C 33.847656 -1.816406 28.820312 1.046875 21.46875 1.046875 Z M 25.859375 -9.28125 C 29.054688 -9.28125 31.613281 -10.351562 33.53125 -12.5 C 35.445312 -14.65625 36.40625 -17.644531 36.40625 -21.46875 L 36.40625 -27.0625 L 35.453125 -27.265625 C 34.617188 -26.597656 33.523438 -26.039062 32.171875 -25.59375 C 30.828125 -25.144531 28.890625 -24.703125 26.359375 -24.265625 C 23.367188 -23.765625 21.210938 -22.90625 19.890625 -21.6875 C 18.578125 -20.476562 17.921875 -18.757812 17.921875 -16.53125 C 17.921875 -14.164062 18.617188 -12.363281 20.015625 -11.125 C 21.421875 -9.894531 23.367188 -9.28125 25.859375 -9.28125 Z M 25.859375 -9.28125 "/></g></g></g><g fill="#ffffff" fill-opacity="1"><g transform="translate(677.688532, 181.635882)"><g><path d="M 38 -13.125 L 41.59375 -2.890625 C 40.09375 -1.660156 38.210938 -0.695312 35.953125 0 C 33.691406 0.695312 31.128906 1.046875 28.265625 1.046875 C 22.304688 1.046875 17.773438 -0.570312 14.671875 -3.8125 C 11.578125 -7.0625 10.03125 -11.78125 10.03125 -17.96875 L 10.03125 -44.140625 L 1.640625 -44.140625 L 1.640625 -55.125 L 10.03125 -55.125 L 10.03125 -65.859375 L 23.875 -68.109375 L 23.875 -55.125 L 39.5 -55.125 L 39.5 -44.140625 L 23.875 -44.140625 L 23.875 -18.96875 C 23.875 -16.238281 24.4375 -14.25 25.5625 -13 C 26.695312 -11.757812 28.347656 -11.140625 30.515625 -11.140625 C 32.972656 -11.140625 35.117188 -11.800781 36.953125 -13.125 Z M 38 -13.125 "/></g></g></g><g fill="#ffffff" fill-opacity="1"><g transform="translate(720.480627, 181.635882)"><g><path d="M 7.9375 0 L 7.9375 -77.203125 L 21.765625 -77.203125 L 21.765625 -47.890625 L 22.8125 -47.6875 C 24.644531 -50.382812 26.894531 -52.460938 29.5625 -53.921875 C 32.226562 -55.390625 35.441406 -56.125 39.203125 -56.125 C 51.347656 -56.125 57.421875 -49.234375 57.421875 -35.453125 L 57.421875 0 L 43.59375 0 L 43.59375 -33.703125 C 43.59375 -37.460938 42.84375 -40.191406 41.34375 -41.890625 C 39.84375 -43.585938 37.515625 -44.4375 34.359375 -44.4375 C 30.492188 -44.4375 27.425781 -43.144531 25.15625 -40.5625 C 22.894531 -37.988281 21.765625 -33.972656 21.765625 -28.515625 L 21.765625 0 Z M 7.9375 0 "/></g></g></g><g fill="#ffffff" fill-opacity="1"><g transform="translate(784.99335, 181.635882)"><g><path d="M 22.328125 10.4375 C 17.796875 4.84375 14.144531 -1.394531 11.375 -8.28125 C 8.613281 -15.175781 7.234375 -23.535156 7.234375 -33.359375 C 7.234375 -43.210938 8.613281 -51.582031 11.375 -58.46875 C 14.144531 -65.363281 17.796875 -71.609375 22.328125 -77.203125 L 32.953125 -77.203125 L 33.15625 -76.15625 C 29.5625 -69.988281 26.78125 -63.59375 24.8125 -56.96875 C 22.851562 -50.34375 21.875 -42.472656 21.875 -33.359375 C 21.875 -24.265625 22.851562 -16.40625 24.8125 -9.78125 C 26.78125 -3.15625 29.5625 3.234375 33.15625 9.390625 L 32.953125 10.4375 Z M 22.328125 10.4375 "/></g></g></g><g fill="#ffffff" fill-opacity="1"><g transform="translate(821.294252, 181.635882)"><g><path d="M 3.140625 9.390625 C 5.441406 5.390625 7.40625 1.378906 9.03125 -2.640625 C 10.664062 -6.671875 11.972656 -11.234375 12.953125 -16.328125 C 13.941406 -21.421875 14.4375 -27.097656 14.4375 -33.359375 C 14.4375 -39.617188 13.941406 -45.300781 12.953125 -50.40625 C 11.972656 -55.519531 10.675781 -60.085938 9.0625 -64.109375 C 7.445312 -68.140625 5.472656 -72.15625 3.140625 -76.15625 L 3.34375 -77.203125 L 13.9375 -77.203125 C 16.789062 -73.640625 19.316406 -69.867188 21.515625 -65.890625 C 23.710938 -61.910156 25.519531 -57.195312 26.9375 -51.75 C 28.351562 -46.3125 29.0625 -40.179688 29.0625 -33.359375 C 29.0625 -23.535156 27.671875 -15.175781 24.890625 -8.28125 C 22.109375 -1.394531 18.457031 4.84375 13.9375 10.4375 L 3.34375 10.4375 Z M 3.140625 9.390625 "/></g></g></g></svg>