<svg xmlns="http://www.w3.org/2000/svg" xmlns:xlink="http://www.w3.org/1999/xlink" width="500" zoomAndPan="magnify" viewBox="0 0 375 374.999991" height="500" preserveAspectRatio="xMidYMid meet" version="1.0"><defs><clipPath id="38067218be"><path d="M 187.5 0 C 83.945312 0 0 83.945312 0 187.5 C 0 291.054688 83.945312 375 187.5 375 C 291.054688 375 375 291.054688 375 187.5 C 375 83.945312 291.054688 0 187.5 0 " clip-rule="nonzero"/></clipPath><clipPath id="2b5edb02ec"><path d="M 89.894531 82 L 287.8125 82 L 287.8125 277 L 89.894531 277 Z M 89.894531 82 " clip-rule="nonzero"/></clipPath></defs><g clip-path="url(#38067218be)"><rect x="-37.5" width="450" fill="#a78bfa" y="-37.499999" height="449.999989" fill-opacity="1"/></g><g clip-path="url(#2b5edb02ec)"><path fill="#ffffff" d="M 194.34375 103.9375 C 191.019531 101.722656 186.6875 101.722656 183.363281 103.9375 L 114.09375 150.117188 C 111.339844 151.953125 109.6875 155.042969 109.6875 158.351562 L 109.6875 246.71875 C 109.6875 252.183594 114.117188 256.613281 119.582031 256.613281 L 149.269531 256.613281 L 149.269531 217.03125 C 149.269531 200.632812 162.5625 187.34375 178.957031 187.34375 L 198.75 187.34375 C 215.144531 187.34375 228.4375 200.632812 228.4375 217.03125 L 228.4375 256.613281 L 258.125 256.613281 C 263.589844 256.613281 268.019531 252.183594 268.019531 246.71875 L 268.019531 158.351562 C 268.019531 155.042969 266.367188 151.953125 263.613281 150.117188 Z M 172.386719 87.46875 C 182.359375 80.820312 195.347656 80.820312 205.320312 87.46875 L 274.589844 133.648438 C 282.851562 139.15625 287.8125 148.425781 287.8125 158.351562 L 287.8125 246.71875 C 287.8125 263.113281 274.519531 276.40625 258.125 276.40625 L 218.539062 276.40625 C 213.074219 276.40625 208.644531 271.976562 208.644531 266.507812 L 208.644531 217.03125 C 208.644531 211.566406 204.214844 207.132812 198.75 207.132812 L 178.957031 207.132812 C 173.492188 207.132812 169.0625 211.566406 169.0625 217.03125 L 169.0625 266.507812 C 169.0625 271.976562 164.632812 276.40625 159.164062 276.40625 L 119.582031 276.40625 C 103.1875 276.40625 89.894531 263.113281 89.894531 246.71875 L 89.894531 158.351562 C 89.894531 148.425781 94.855469 139.15625 103.113281 133.648438 Z M 172.386719 87.46875 " fill-opacity="1" fill-rule="evenodd"/></g></svg>