<svg xmlns="http://www.w3.org/2000/svg" xmlns:xlink="http://www.w3.org/1999/xlink" width="1920" zoomAndPan="magnify" viewBox="0 0 1440 809.999993" height="1080" preserveAspectRatio="xMidYMid meet" version="1.0"><defs><g/></defs><g fill="#a78bfa" fill-opacity="1"><g transform="translate(25.097193, 458.818151)"><g><path d="M 50.640625 1.609375 C 44.296875 1.609375 38.695312 0.320312 33.84375 -2.25 C 29 -4.820312 25.289062 -8.378906 22.71875 -12.921875 C 20.144531 -17.472656 18.859375 -22.625 18.859375 -28.375 C 18.859375 -34.113281 20.144531 -39.257812 22.71875 -43.8125 C 25.289062 -48.363281 29 -51.953125 33.84375 -54.578125 C 38.695312 -57.210938 44.296875 -58.53125 50.640625 -58.53125 C 57.097656 -58.53125 62.75 -57.242188 67.59375 -54.671875 C 72.445312 -52.097656 76.160156 -48.535156 78.734375 -43.984375 C 81.304688 -39.441406 82.59375 -34.296875 82.59375 -28.546875 C 82.59375 -19.804688 79.691406 -12.59375 73.890625 -6.90625 C 68.085938 -1.226562 60.335938 1.609375 50.640625 1.609375 Z M 50.640625 1.609375 "/></g></g></g><g fill="#0affa7" fill-opacity="1"><g transform="translate(112.848361, 489.012692)"><g><path d="M 53.34375 -3.65625 L 2.125 -0.015625 L 81.4375 -208.609375 L 132.8125 -212.265625 Z M 53.34375 -3.65625 "/></g></g></g><g fill="#ffffff" fill-opacity="1"><g transform="translate(235.180835, 455.03377)"><g><path d="M 36.03125 1.65625 C 28.21875 1.65625 22.25 -0.453125 18.125 -4.671875 C 14.007812 -8.898438 11.953125 -15.316406 11.953125 -23.921875 L 11.953125 -121.625 L 33.75 -121.625 L 33.75 -24.78125 C 33.75 -19.476562 35.953125 -16.828125 40.359375 -16.828125 C 41.617188 -16.828125 42.957031 -17.039062 44.375 -17.46875 L 45.46875 -17.15625 L 47.4375 -0.390625 C 46.226562 0.234375 44.625 0.726562 42.625 1.09375 C 40.632812 1.46875 38.4375 1.65625 36.03125 1.65625 Z M 36.03125 1.65625 "/></g></g></g><g fill="#ffffff" fill-opacity="1"><g transform="translate(285.051676, 455.03377)"><g><path d="M 85.75 -38.46875 L 29.96875 -38.46875 C 30.601562 -30.914062 32.753906 -25.421875 36.421875 -21.984375 C 40.085938 -18.546875 45.097656 -16.828125 51.453125 -16.828125 C 56.429688 -16.828125 60.46875 -17.757812 63.5625 -19.625 C 66.65625 -21.488281 69.144531 -24.304688 71.03125 -28.078125 L 72.6875 -28.078125 L 87.15625 -18.796875 C 84.332031 -12.710938 80.0625 -7.78125 74.34375 -4 C 68.625 -0.226562 60.992188 1.65625 51.453125 1.65625 C 42.484375 1.65625 34.734375 -0.046875 28.203125 -3.453125 C 21.671875 -6.867188 16.632812 -11.945312 13.09375 -18.6875 C 9.550781 -25.425781 7.78125 -33.644531 7.78125 -43.34375 C 7.78125 -53.207031 9.640625 -61.519531 13.359375 -68.28125 C 17.085938 -75.050781 22.125 -80.097656 28.46875 -83.421875 C 34.820312 -86.753906 41.957031 -88.421875 49.875 -88.421875 C 62.144531 -88.421875 71.546875 -85.164062 78.078125 -78.65625 C 84.609375 -72.15625 87.875 -62.613281 87.875 -50.03125 C 87.875 -45.46875 87.71875 -41.925781 87.40625 -39.40625 Z M 67.03125 -52.546875 C 66.8125 -59.160156 65.273438 -63.972656 62.421875 -66.984375 C 59.566406 -70.003906 55.382812 -71.515625 49.875 -71.515625 C 38.863281 -71.515625 32.382812 -65.191406 30.4375 -52.546875 Z M 67.03125 -52.546875 "/></g></g></g><g fill="#ffffff" fill-opacity="1"><g transform="translate(379.365773, 455.03377)"><g><path d="M 33.828125 1.65625 C 28.265625 1.65625 23.4375 0.632812 19.34375 -1.40625 C 15.257812 -3.457031 12.113281 -6.460938 9.90625 -10.421875 C 7.707031 -14.378906 6.609375 -19.140625 6.609375 -24.703125 C 6.609375 -29.835938 7.707031 -34.148438 9.90625 -37.640625 C 12.113281 -41.128906 15.523438 -43.988281 20.140625 -46.21875 C 24.753906 -48.445312 30.785156 -50.164062 38.234375 -51.375 C 43.421875 -52.207031 47.363281 -53.125 50.0625 -54.125 C 52.769531 -55.125 54.59375 -56.25 55.53125 -57.5 C 56.476562 -58.757812 56.953125 -60.359375 56.953125 -62.296875 C 56.953125 -65.078125 55.984375 -67.203125 54.046875 -68.671875 C 52.109375 -70.140625 48.882812 -70.875 44.375 -70.875 C 39.539062 -70.875 34.945312 -69.796875 30.59375 -67.640625 C 26.25 -65.492188 22.472656 -62.664062 19.265625 -59.15625 L 17.703125 -59.15625 L 8.578125 -72.921875 C 12.984375 -77.796875 18.359375 -81.597656 24.703125 -84.328125 C 31.046875 -87.054688 37.96875 -88.421875 45.46875 -88.421875 C 56.957031 -88.421875 65.269531 -85.984375 70.40625 -81.109375 C 75.539062 -76.234375 78.109375 -69.3125 78.109375 -60.34375 L 78.109375 -22.65625 C 78.109375 -18.769531 79.816406 -16.828125 83.234375 -16.828125 C 84.546875 -16.828125 85.828125 -17.066406 87.078125 -17.546875 L 88.1875 -17.234375 L 89.765625 -2.046875 C 88.554688 -1.253906 86.875 -0.609375 84.71875 -0.109375 C 82.570312 0.378906 80.210938 0.625 77.640625 0.625 C 72.453125 0.625 68.398438 -0.367188 65.484375 -2.359375 C 62.578125 -4.347656 60.492188 -7.46875 59.234375 -11.71875 L 57.578125 -11.875 C 53.335938 -2.851562 45.421875 1.65625 33.828125 1.65625 Z M 40.75 -14.625 C 45.78125 -14.625 49.800781 -16.316406 52.8125 -19.703125 C 55.832031 -23.085938 57.34375 -27.796875 57.34375 -33.828125 L 57.34375 -42.640625 L 55.859375 -42.953125 C 54.546875 -41.898438 52.828125 -41.019531 50.703125 -40.3125 C 48.578125 -39.601562 45.519531 -38.910156 41.53125 -38.234375 C 36.8125 -37.441406 33.414062 -36.085938 31.34375 -34.171875 C 29.269531 -32.265625 28.234375 -29.550781 28.234375 -26.03125 C 28.234375 -22.3125 29.332031 -19.476562 31.53125 -17.53125 C 33.738281 -15.59375 36.8125 -14.625 40.75 -14.625 Z M 40.75 -14.625 "/></g></g></g><g fill="#ffffff" fill-opacity="1"><g transform="translate(470.848087, 455.03377)"><g><path d="M 12.515625 0 L 12.515625 -86.765625 L 33.671875 -86.765625 L 33.671875 -73.875 L 35.328125 -73.546875 C 37.421875 -78.378906 40.171875 -81.921875 43.578125 -84.171875 C 46.984375 -86.429688 51.128906 -87.5625 56.015625 -87.5625 C 60.941406 -87.5625 64.691406 -86.71875 67.265625 -85.03125 L 63.5625 -66.234375 L 61.90625 -65.921875 C 60.488281 -66.492188 59.125 -66.910156 57.8125 -67.171875 C 56.507812 -67.441406 54.910156 -67.578125 53.015625 -67.578125 C 46.929688 -67.578125 42.289062 -65.4375 39.09375 -61.15625 C 35.894531 -56.882812 34.296875 -50.03125 34.296875 -40.59375 L 34.296875 0 Z M 12.515625 0 "/></g></g></g><g fill="#ffffff" fill-opacity="1"><g transform="translate(538.889533, 455.03377)"><g><path d="M 12.515625 0 L 12.515625 -86.765625 L 33.4375 -86.765625 L 33.4375 -74.03125 L 35.078125 -73.625 C 40.484375 -83.488281 49.242188 -88.421875 61.359375 -88.421875 C 71.378906 -88.421875 78.734375 -85.691406 83.421875 -80.234375 C 88.117188 -74.785156 90.46875 -66.84375 90.46875 -56.40625 L 90.46875 0 L 68.671875 0 L 68.671875 -53.734375 C 68.671875 -59.492188 67.515625 -63.644531 65.203125 -66.1875 C 62.898438 -68.738281 59.207031 -70.015625 54.125 -70.015625 C 47.882812 -70.015625 43.019531 -67.992188 39.53125 -63.953125 C 36.039062 -59.921875 34.296875 -53.578125 34.296875 -44.921875 L 34.296875 0 Z M 12.515625 0 "/></g></g></g><g fill="#ffffff" fill-opacity="1"><g transform="translate(640.519048, 455.03377)"><g><path d="M 23.359375 -97.15625 C 19.429688 -97.15625 16.234375 -98.347656 13.765625 -100.734375 C 11.296875 -103.117188 10.0625 -106.195312 10.0625 -109.96875 C 10.0625 -113.695312 11.296875 -116.753906 13.765625 -119.140625 C 16.234375 -121.523438 19.429688 -122.71875 23.359375 -122.71875 C 25.984375 -122.71875 28.316406 -122.164062 30.359375 -121.0625 C 32.410156 -119.96875 34 -118.460938 35.125 -116.546875 C 36.25 -114.628906 36.8125 -112.4375 36.8125 -109.96875 C 36.8125 -107.507812 36.25 -105.304688 35.125 -103.359375 C 34 -101.421875 32.410156 -99.898438 30.359375 -98.796875 C 28.316406 -97.703125 25.984375 -97.15625 23.359375 -97.15625 Z M 12.515625 0 L 12.515625 -86.765625 L 34.296875 -86.765625 L 34.296875 0 Z M 12.515625 0 "/></g></g></g><g fill="#ffffff" fill-opacity="1"><g transform="translate(687.243464, 455.03377)"><g><path d="M 12.515625 0 L 12.515625 -86.765625 L 33.4375 -86.765625 L 33.4375 -74.03125 L 35.078125 -73.625 C 40.484375 -83.488281 49.242188 -88.421875 61.359375 -88.421875 C 71.378906 -88.421875 78.734375 -85.691406 83.421875 -80.234375 C 88.117188 -74.785156 90.46875 -66.84375 90.46875 -56.40625 L 90.46875 0 L 68.671875 0 L 68.671875 -53.734375 C 68.671875 -59.492188 67.515625 -63.644531 65.203125 -66.1875 C 62.898438 -68.738281 59.207031 -70.015625 54.125 -70.015625 C 47.882812 -70.015625 43.019531 -67.992188 39.53125 -63.953125 C 36.039062 -59.921875 34.296875 -53.578125 34.296875 -44.921875 L 34.296875 0 Z M 12.515625 0 "/></g></g></g><g fill="#ffffff" fill-opacity="1"><g transform="translate(788.872999, 455.03377)"><g><path d="M 45 36.8125 C 30.675781 36.8125 20.101562 34.710938 13.28125 30.515625 C 6.46875 26.328125 3.0625 20.484375 3.0625 12.984375 C 3.0625 8.421875 4.515625 4.679688 7.421875 1.765625 C 10.335938 -1.140625 14.523438 -3.09375 19.984375 -4.09375 L 19.984375 -5.75 C 17.046875 -7.53125 14.929688 -9.507812 13.640625 -11.6875 C 12.359375 -13.863281 11.71875 -16.390625 11.71875 -19.265625 C 11.71875 -26.242188 16.253906 -30.941406 25.328125 -33.359375 L 25.328125 -35 C 20.660156 -37.675781 17.144531 -40.992188 14.78125 -44.953125 C 12.425781 -48.910156 11.25 -53.695312 11.25 -59.3125 C 11.25 -65.082031 12.570312 -70.15625 15.21875 -74.53125 C 17.863281 -78.914062 21.742188 -82.328125 26.859375 -84.765625 C 31.972656 -87.203125 38.097656 -88.421875 45.234375 -88.421875 C 52.472656 -88.421875 58.242188 -87.160156 62.546875 -84.640625 C 65.210938 -88.523438 66.757812 -93.007812 67.1875 -98.09375 L 68.828125 -99.125 L 84.484375 -95.265625 C 84.015625 -91.117188 82.804688 -87.644531 80.859375 -84.84375 C 78.921875 -82.039062 75.910156 -79.535156 71.828125 -77.328125 L 71.828125 -75.59375 C 76.703125 -71.289062 79.140625 -65.285156 79.140625 -57.578125 C 79.140625 -52.234375 77.800781 -47.4375 75.125 -43.1875 C 72.445312 -38.9375 68.550781 -35.578125 63.4375 -33.109375 C 58.332031 -30.648438 52.265625 -29.421875 45.234375 -29.421875 L 41.921875 -29.5 C 39.828125 -29.601562 38.363281 -29.65625 37.53125 -29.65625 C 35.53125 -29.65625 33.96875 -29.117188 32.84375 -28.046875 C 31.71875 -26.972656 31.15625 -25.597656 31.15625 -23.921875 C 31.15625 -22.078125 31.890625 -20.644531 33.359375 -19.625 C 34.828125 -18.601562 36.976562 -18.039062 39.8125 -17.9375 L 59.234375 -17.234375 C 78.429688 -16.648438 88.03125 -8.390625 88.03125 7.546875 C 88.03125 13.160156 86.597656 18.15625 83.734375 22.53125 C 80.878906 26.914062 76.253906 30.390625 69.859375 32.953125 C 63.460938 35.523438 55.175781 36.8125 45 36.8125 Z M 45.234375 -44.6875 C 49.429688 -44.6875 52.707031 -45.914062 55.0625 -48.375 C 57.425781 -50.84375 58.609375 -54.359375 58.609375 -58.921875 C 58.609375 -63.484375 57.425781 -66.984375 55.0625 -69.421875 C 52.707031 -71.859375 49.429688 -73.078125 45.234375 -73.078125 C 40.984375 -73.078125 37.703125 -71.859375 35.390625 -69.421875 C 33.085938 -66.984375 31.9375 -63.484375 31.9375 -58.921875 C 31.9375 -54.304688 33.085938 -50.78125 35.390625 -48.34375 C 37.703125 -45.90625 40.984375 -44.6875 45.234375 -44.6875 Z M 45 21 C 52.445312 21 57.859375 19.945312 61.234375 17.84375 C 64.617188 15.75 66.3125 13.023438 66.3125 9.671875 C 66.3125 6.941406 65.445312 4.9375 63.71875 3.65625 C 61.988281 2.375 59.234375 1.679688 55.453125 1.578125 L 38.3125 0.78125 C 37.738281 0.78125 37.203125 0.753906 36.703125 0.703125 C 36.203125 0.648438 35.71875 0.625 35.25 0.625 C 31.570312 0.625 28.773438 1.410156 26.859375 2.984375 C 24.953125 4.554688 24 6.734375 24 9.515625 C 24 13.191406 25.753906 16.023438 29.265625 18.015625 C 32.773438 20.003906 38.019531 21 45 21 Z M 45 21 "/></g></g></g><g fill="#ffffff" fill-opacity="1"><g transform="translate(879.096723, 455.03377)"><g><path d="M 59.390625 -115.015625 C 67.628906 -115.015625 74.671875 -113.503906 80.515625 -110.484375 C 86.359375 -107.472656 90.773438 -103.253906 93.765625 -97.828125 C 96.753906 -92.398438 98.25 -86.09375 98.25 -78.90625 C 98.25 -71.71875 96.753906 -65.421875 93.765625 -60.015625 C 90.773438 -54.617188 86.359375 -50.410156 80.515625 -47.390625 C 74.671875 -44.378906 67.628906 -42.875 59.390625 -42.875 L 37.6875 -42.875 L 37.6875 0 L 14.953125 0 L 14.953125 -115.015625 Z M 56.40625 -60.890625 C 69.039062 -60.890625 75.359375 -66.894531 75.359375 -78.90625 C 75.359375 -90.96875 69.039062 -97 56.40625 -97 L 37.6875 -97 L 37.6875 -60.890625 Z M 56.40625 -60.890625 "/></g></g></g><g fill="#ffffff" fill-opacity="1"><g transform="translate(984.187326, 455.03377)"><g><path d="M 33.828125 1.65625 C 28.265625 1.65625 23.4375 0.632812 19.34375 -1.40625 C 15.257812 -3.457031 12.113281 -6.460938 9.90625 -10.421875 C 7.707031 -14.378906 6.609375 -19.140625 6.609375 -24.703125 C 6.609375 -29.835938 7.707031 -34.148438 9.90625 -37.640625 C 12.113281 -41.128906 15.523438 -43.988281 20.140625 -46.21875 C 24.753906 -48.445312 30.785156 -50.164062 38.234375 -51.375 C 43.421875 -52.207031 47.363281 -53.125 50.0625 -54.125 C 52.769531 -55.125 54.59375 -56.25 55.53125 -57.5 C 56.476562 -58.757812 56.953125 -60.359375 56.953125 -62.296875 C 56.953125 -65.078125 55.984375 -67.203125 54.046875 -68.671875 C 52.109375 -70.140625 48.882812 -70.875 44.375 -70.875 C 39.539062 -70.875 34.945312 -69.796875 30.59375 -67.640625 C 26.25 -65.492188 22.472656 -62.664062 19.265625 -59.15625 L 17.703125 -59.15625 L 8.578125 -72.921875 C 12.984375 -77.796875 18.359375 -81.597656 24.703125 -84.328125 C 31.046875 -87.054688 37.96875 -88.421875 45.46875 -88.421875 C 56.957031 -88.421875 65.269531 -85.984375 70.40625 -81.109375 C 75.539062 -76.234375 78.109375 -69.3125 78.109375 -60.34375 L 78.109375 -22.65625 C 78.109375 -18.769531 79.816406 -16.828125 83.234375 -16.828125 C 84.546875 -16.828125 85.828125 -17.066406 87.078125 -17.546875 L 88.1875 -17.234375 L 89.765625 -2.046875 C 88.554688 -1.253906 86.875 -0.609375 84.71875 -0.109375 C 82.570312 0.378906 80.210938 0.625 77.640625 0.625 C 72.453125 0.625 68.398438 -0.367188 65.484375 -2.359375 C 62.578125 -4.347656 60.492188 -7.46875 59.234375 -11.71875 L 57.578125 -11.875 C 53.335938 -2.851562 45.421875 1.65625 33.828125 1.65625 Z M 40.75 -14.625 C 45.78125 -14.625 49.800781 -16.316406 52.8125 -19.703125 C 55.832031 -23.085938 57.34375 -27.796875 57.34375 -33.828125 L 57.34375 -42.640625 L 55.859375 -42.953125 C 54.546875 -41.898438 52.828125 -41.019531 50.703125 -40.3125 C 48.578125 -39.601562 45.519531 -38.910156 41.53125 -38.234375 C 36.8125 -37.441406 33.414062 -36.085938 31.34375 -34.171875 C 29.269531 -32.265625 28.234375 -29.550781 28.234375 -26.03125 C 28.234375 -22.3125 29.332031 -19.476562 31.53125 -17.53125 C 33.738281 -15.59375 36.8125 -14.625 40.75 -14.625 Z M 40.75 -14.625 "/></g></g></g><g fill="#ffffff" fill-opacity="1"><g transform="translate(1075.66966, 455.03377)"><g><path d="M 59.859375 -20.6875 L 65.53125 -4.5625 C 63.164062 -2.625 60.203125 -1.101562 56.640625 0 C 53.078125 1.101562 49.039062 1.65625 44.53125 1.65625 C 35.132812 1.65625 28 -0.898438 23.125 -6.015625 C 18.25 -11.128906 15.8125 -18.5625 15.8125 -28.3125 L 15.8125 -69.546875 L 2.59375 -69.546875 L 2.59375 -86.84375 L 15.8125 -86.84375 L 15.8125 -103.765625 L 37.609375 -107.296875 L 37.609375 -86.84375 L 62.21875 -86.84375 L 62.21875 -69.546875 L 37.609375 -69.546875 L 37.609375 -29.890625 C 37.609375 -25.585938 38.5 -22.453125 40.28125 -20.484375 C 42.0625 -18.523438 44.65625 -17.546875 48.0625 -17.546875 C 51.945312 -17.546875 55.332031 -18.59375 58.21875 -20.6875 Z M 59.859375 -20.6875 "/></g></g></g><g fill="#ffffff" fill-opacity="1"><g transform="translate(1143.081801, 455.03377)"><g><path d="M 12.515625 0 L 12.515625 -121.625 L 34.296875 -121.625 L 34.296875 -75.4375 L 35.953125 -75.125 C 38.835938 -79.375 42.375 -82.648438 46.5625 -84.953125 C 50.757812 -87.265625 55.820312 -88.421875 61.75 -88.421875 C 80.894531 -88.421875 90.46875 -77.566406 90.46875 -55.859375 L 90.46875 0 L 68.671875 0 L 68.671875 -53.09375 C 68.671875 -59.019531 67.488281 -63.320312 65.125 -66 C 62.769531 -68.675781 59.101562 -70.015625 54.125 -70.015625 C 48.039062 -70.015625 43.210938 -67.976562 39.640625 -63.90625 C 36.078125 -59.84375 34.296875 -53.515625 34.296875 -44.921875 L 34.296875 0 Z M 12.515625 0 "/></g></g></g><g fill="#ffffff" fill-opacity="1"><g transform="translate(1244.711336, 455.03377)"><g><path d="M 35.15625 16.4375 C 28.03125 7.625 22.289062 -2.207031 17.9375 -13.0625 C 13.582031 -23.914062 11.40625 -37.078125 11.40625 -52.546875 C 11.40625 -68.066406 13.582031 -81.253906 17.9375 -92.109375 C 22.289062 -102.972656 28.03125 -112.8125 35.15625 -121.625 L 51.921875 -121.625 L 52.234375 -119.96875 C 46.566406 -110.257812 42.1875 -100.1875 39.09375 -89.75 C 36 -79.320312 34.453125 -66.921875 34.453125 -52.546875 C 34.453125 -38.234375 36 -25.859375 39.09375 -15.421875 C 42.1875 -4.984375 46.566406 5.085938 52.234375 14.796875 L 51.921875 16.4375 Z M 35.15625 16.4375 "/></g></g></g><g fill="#ffffff" fill-opacity="1"><g transform="translate(1301.897635, 455.03377)"><g><path d="M 4.953125 14.796875 C 8.578125 8.492188 11.671875 2.171875 14.234375 -4.171875 C 16.804688 -10.515625 18.863281 -17.695312 20.40625 -25.71875 C 21.957031 -33.75 22.734375 -42.691406 22.734375 -52.546875 C 22.734375 -62.410156 21.957031 -71.363281 20.40625 -79.40625 C 18.863281 -87.457031 16.820312 -94.65625 14.28125 -101 C 11.738281 -107.351562 8.628906 -113.675781 4.953125 -119.96875 L 5.265625 -121.625 L 21.953125 -121.625 C 26.460938 -116.007812 30.445312 -110.066406 33.90625 -103.796875 C 37.363281 -97.535156 40.207031 -90.113281 42.4375 -81.53125 C 44.664062 -72.957031 45.78125 -63.296875 45.78125 -52.546875 C 45.78125 -37.078125 43.585938 -23.914062 39.203125 -13.0625 C 34.828125 -2.207031 29.078125 7.625 21.953125 16.4375 L 5.265625 16.4375 Z M 4.953125 14.796875 "/></g></g></g></svg>