<svg xmlns="http://www.w3.org/2000/svg" xmlns:xlink="http://www.w3.org/1999/xlink" width="500" zoomAndPan="magnify" viewBox="0 0 375 374.999991" height="500" preserveAspectRatio="xMidYMid meet" version="1.0"><defs><clipPath id="b35e8d36a6"><path d="M 187.5 0 C 83.945312 0 0 83.945312 0 187.5 C 0 291.054688 83.945312 375 187.5 375 C 291.054688 375 375 291.054688 375 187.5 C 375 83.945312 291.054688 0 187.5 0 " clip-rule="nonzero"/></clipPath><clipPath id="a6615f1e8b"><path d="M 71.976562 179 L 204 179 L 204 202 L 71.976562 202 Z M 71.976562 179 " clip-rule="nonzero"/></clipPath><clipPath id="eca8ccf335"><path d="M 104 91.050781 L 291.882812 91.050781 L 291.882812 288.96875 L 104 288.96875 Z M 104 91.050781 " clip-rule="nonzero"/></clipPath></defs><g clip-path="url(#b35e8d36a6)"><rect x="-37.5" width="450" fill="#a78bfa" y="-37.499999" height="449.999989" fill-opacity="1"/></g><g clip-path="url(#a6615f1e8b)"><path fill="#ffffff" d="M 71.976562 179.015625 L 203.921875 179.015625 L 203.921875 201.003906 L 71.976562 201.003906 Z M 71.976562 179.015625 " fill-opacity="1" fill-rule="evenodd"/></g><path fill="#ffffff" d="M 173.214844 143.753906 L 211.699219 182.234375 C 215.992188 186.53125 215.992188 193.492188 211.699219 197.785156 L 173.214844 236.265625 L 157.664062 220.71875 L 188.371094 190.011719 L 157.664062 159.304688 Z M 173.214844 143.753906 " fill-opacity="1" fill-rule="evenodd"/><g clip-path="url(#eca8ccf335)"><path fill="#ffffff" d="M 192.925781 113.046875 C 163.046875 113.046875 137.121094 130.070312 124.363281 155 L 104.785156 144.980469 C 121.160156 112.992188 154.472656 91.058594 192.925781 91.058594 C 247.578125 91.058594 291.882812 135.359375 291.882812 190.011719 C 291.882812 244.660156 247.578125 288.964844 192.925781 288.964844 C 154.472656 288.964844 121.160156 267.03125 104.785156 235.042969 L 124.363281 225.023438 C 137.121094 249.949219 163.046875 266.976562 192.925781 266.976562 C 235.433594 266.976562 269.890625 232.515625 269.890625 190.011719 C 269.890625 147.503906 235.433594 113.046875 192.925781 113.046875 Z M 192.925781 113.046875 " fill-opacity="1" fill-rule="evenodd"/></g></svg>