<svg xmlns="http://www.w3.org/2000/svg" xmlns:xlink="http://www.w3.org/1999/xlink" width="500" zoomAndPan="magnify" viewBox="0 0 375 374.999991" height="500" preserveAspectRatio="xMidYMid meet" version="1.0"><defs><clipPath id="ad918ad6bc"><path d="M 187.5 0 C 83.945312 0 0 83.945312 0 187.5 C 0 291.054688 83.945312 375 187.5 375 C 291.054688 375 375 291.054688 375 187.5 C 375 83.945312 291.054688 0 187.5 0 " clip-rule="nonzero"/></clipPath><clipPath id="9424aeb0ef"><path d="M 88.738281 88.738281 L 286.652344 88.738281 L 286.652344 286.652344 L 88.738281 286.652344 Z M 88.738281 88.738281 " clip-rule="nonzero"/></clipPath></defs><g clip-path="url(#ad918ad6bc)"><rect x="-37.5" width="450" fill="#7c3aed" y="-37.499999" height="449.999989" fill-opacity="1"/></g><g clip-path="url(#9424aeb0ef)"><path fill="#ffffff" d="M 187.695312 108.527344 C 143.972656 108.527344 108.527344 143.972656 108.527344 187.695312 C 108.527344 231.417969 143.972656 266.863281 187.695312 266.863281 C 231.417969 266.863281 266.863281 231.417969 266.863281 187.695312 C 266.863281 143.972656 231.417969 108.527344 187.695312 108.527344 Z M 88.738281 187.695312 C 88.738281 133.042969 133.042969 88.738281 187.695312 88.738281 C 242.347656 88.738281 286.652344 133.042969 286.652344 187.695312 C 286.652344 242.347656 242.347656 286.652344 187.695312 286.652344 C 133.042969 286.652344 88.738281 242.347656 88.738281 187.695312 Z M 88.738281 187.695312 " fill-opacity="1" fill-rule="evenodd"/></g><path fill="#ffffff" d="M 187.695312 148.113281 C 176.765625 148.113281 167.902344 156.972656 167.902344 167.902344 C 167.902344 178.835938 176.765625 187.695312 187.695312 187.695312 C 198.625 187.695312 207.488281 178.835938 207.488281 167.902344 C 207.488281 156.972656 198.625 148.113281 187.695312 148.113281 Z M 148.113281 167.902344 C 148.113281 146.042969 165.835938 128.320312 187.695312 128.320312 C 209.558594 128.320312 227.277344 146.042969 227.277344 167.902344 C 227.277344 189.765625 209.558594 207.488281 187.695312 207.488281 C 165.835938 207.488281 148.113281 189.765625 148.113281 167.902344 Z M 148.113281 167.902344 " fill-opacity="1" fill-rule="evenodd"/><path fill="#ffffff" d="M 187.695312 232.226562 C 165.730469 232.226562 146.539062 244.148438 136.257812 261.921875 L 119.125 252.011719 C 132.800781 228.375 158.378906 212.433594 187.695312 212.433594 C 217.011719 212.433594 242.589844 228.375 256.265625 252.011719 L 239.132812 261.921875 C 228.851562 244.148438 209.660156 232.226562 187.695312 232.226562 Z M 187.695312 232.226562 " fill-opacity="1" fill-rule="evenodd"/></svg>